<svg xmlns="http://www.w3.org/2000/svg" width="35" height="35"><path d="M21.5 13.5a1 1 0 1 0-.002 2 1 1 0 0 0 .002-2z" fill="#1d1952"/><path d="M17.5 2.5c-8.284 0-15 6.715-15 15 0 8.283 6.716 15 15 15s15-6.717 15-15c0-8.285-6.716-15-15-15zm0 29c-7.731 0-14-6.27-14-14 0-7.732 6.269-14 14-14s14 6.268 14 14c0 7.73-6.269 14-14 14z" fill="#1d1952"/><path d="M24.59 20.841a3.99 3.99 0 0 1-3.99 3.989h-6.021a3.99 3.99 0 0 1-3.989-3.989V14.82a3.99 3.99 0 0 1 3.989-3.99H20.6a3.99 3.99 0 0 1 3.99 3.99v6.021z" fill="none" stroke="#1d1952" stroke-miterlimit="10"/><circle cx="17.5" cy="18" r="3.5" fill="none" stroke="#1d1952" stroke-miterlimit="10"/></svg>