<svg xmlns="http://www.w3.org/2000/svg" width="50" height="50"><path d="M14.308 33.171h-1.851c-3.467 0-6.276-2.733-6.276-6.104s2.81-6.104 6.276-6.104h1.851v12.208zm21.384 0h1.851c3.467 0 6.276-2.731 6.276-6.104 0-3.369-2.81-6.104-6.276-6.104h-1.851v12.208zm2.417-12.207V18.25C38.109 11.208 32.24 5.5 25 5.5c-7.241 0-13.11 5.708-13.11 12.75v2.714m17.009 20.981c0-1.411-1.081-2.556-2.413-2.556h-2.975c-1.333 0-2.412 1.145-2.412 2.556 0 1.41 1.079 2.555 2.412 2.555h2.975c1.332 0 2.413-1.145 2.413-2.555zm0-.072c4.616-.552 8.256-4.175 8.69-8.702" fill="none" stroke="#faf4ef" stroke-miterlimit="10"/></svg>