<svg xmlns="http://www.w3.org/2000/svg" width="35" height="35"><path d="M26.502 13.937c-.59.26-1.222.438-1.886.517a3.283 3.283 0 0 0 1.442-1.815 6.609 6.609 0 0 1-2.086.797 3.284 3.284 0 0 0-5.594 2.994 9.327 9.327 0 0 1-6.767-3.431 3.254 3.254 0 0 0-.444 1.649c0 1.14.58 2.145 1.461 2.732a3.284 3.284 0 0 1-1.488-.412v.041a3.288 3.288 0 0 0 2.634 3.22 3.362 3.362 0 0 1-.865.114c-.212 0-.417-.021-.618-.061a3.286 3.286 0 0 0 3.066 2.28 6.587 6.587 0 0 1-4.077 1.403c-.265 0-.526-.016-.783-.045a9.274 9.274 0 0 0 5.032 1.477c6.039 0 9.341-5.002 9.341-9.34l-.011-.426a6.535 6.535 0 0 0 1.643-1.694z" fill="#bcd1e9"/><path d="M17.5 2.5c-8.284 0-15 6.715-15 15 0 8.283 6.716 15 15 15s15-6.717 15-15c0-8.285-6.716-15-15-15zm0 29c-7.731 0-14-6.27-14-14 0-7.732 6.269-14 14-14s14 6.268 14 14c0 7.73-6.269 14-14 14z" fill="#bcd1e9"/></svg>