<svg xmlns="http://www.w3.org/2000/svg" width="24.016" height="18.017" viewBox="0 0 6.354 4.767"><g transform="translate(-84.513 -142.67)"><circle class="cls-5" cx="85.442" cy="144.656" r=".28" stroke-width=".265"/><path class="cls-5" d="M90.6 143.73h-.793v-.793a.235.235 0 0 0-.264-.265h-3.705a.235.235 0 0 0-.264.265v.793h-.794a.235.235 0 0 0-.265.265v2.381a.235.235 0 0 0 .265.265h.794v.529c0 .198.082.265.264.265h3.705a.233.233 0 0 0 .264-.265v-.53h.794a.235.235 0 0 0 .264-.264v-2.381a.235.235 0 0 0-.264-.265zm-4.762-.793h3.705v.793h-3.705zm3.705 4.233h-3.705v-1.058h3.705zm1.058-.794h-.794v-.264h.132a.132.132 0 0 0 0-.265h-4.497a.132.132 0 0 0 0 .265h.132v.264h-.794v-2.381h5.82z" stroke-width=".265"/></g></svg>