<svg xmlns="http://www.w3.org/2000/svg" width="50" height="50"><path d="M46.025 17.037H3.984L9.785 5.5h30.431l5.809 11.537zm-42.301.371c0 2.858 2.382 5.176 5.319 5.176 2.938 0 5.319-2.317 5.319-5.176m0 0c0 2.858 2.381 5.176 5.318 5.176 2.938 0 5.319-2.317 5.319-5.176m.001 0c0 2.858 2.381 5.176 5.319 5.176s5.319-2.317 5.319-5.176m.001 0c0 2.858 2.381 5.176 5.318 5.176 2.938 0 5.319-2.317 5.319-5.176m-39.15 4.954V44.5h35.992V22.268M22.773 44.5V30.136c0-1.167-.974-2.115-2.173-2.115h-5.025c-1.201 0-2.173.948-2.173 2.115V44.5m24.225-14.364c0-1.167-.973-2.115-2.173-2.115H30.43c-1.201 0-2.174.948-2.174 2.115v4.928c0 1.167.973 2.116 2.174 2.116h5.024c1.2 0 2.173-.949 2.173-2.116v-4.928z" fill="none" stroke="#faf4ef" stroke-miterlimit="10"/></svg>