<svg xmlns="http://www.w3.org/2000/svg" width="35" height="35"><path d="M18.66 22.201c-.974-.076-1.383-.559-2.146-1.023-.42 2.203-.933 4.314-2.453 5.418-.47-3.33.688-5.83 1.227-8.484-.916-1.543.11-4.65 2.044-3.883 2.38.941-2.06 5.738.921 6.336 3.112.627 4.383-5.398 2.452-7.359-2.788-2.83-8.116-.064-7.462 3.986.16.99 1.184 1.291.409 2.658-1.785-.396-2.317-1.803-2.249-3.68.111-3.072 2.761-5.223 5.418-5.521 3.361-.375 6.517 1.236 6.951 4.396.49 3.568-1.517 7.434-5.112 7.156z" fill="#bcd1e9"/><path d="M17.5 2.5c-8.284 0-15 6.715-15 15 0 8.283 6.716 15 15 15s15-6.717 15-15c0-8.285-6.716-15-15-15zm0 29c-7.731 0-14-6.27-14-14 0-7.732 6.269-14 14-14s14 6.268 14 14c0 7.73-6.269 14-14 14z" fill="#bcd1e9"/></svg>