<svg id="Calque_1" xmlns="http://www.w3.org/2000/svg" viewBox="0 0 100 100"><style>.st0{fill:#090954}</style><path class="st0" d="M17.1 61.9v4.2h-1.2v-9.8h3.4c1.8 0 2.9 1.1 2.9 2.8s-1.1 2.8-2.9 2.8h-2.2zm3.8-2.8c0-1-.6-1.6-1.6-1.6H17v3.2h2.3c1.1 0 1.6-.6 1.6-1.6zm4.2-2.9v9.9h-1.2v-9.9h1.2zm8.2 6.6h-5.2c.1 1.3.7 2.3 2 2.3 1 0 1.6-.5 2-1.3l1 .4c-.7 1.4-1.5 2-3 2-2.1 0-3.2-1.8-3.2-3.6 0-1.9 1.1-3.6 3.2-3.6s3.2 1.6 3.2 3.3v.5zm-5.1-1.1h3.9c-.2-1-.8-1.8-2-1.8-1.1.1-1.7.8-1.9 1.8zm12.2 4.4h-.9l-.2-1c-.4.6-1.2 1.1-2.2 1.1-1.2 0-2.2-.6-2.2-2.1s1.3-2.3 3.2-2.3h1.1v-.3c0-1.1-.7-1.5-1.5-1.5-.7 0-1.3.4-1.5 1.1l-1-.2c.2-1.2 1.2-1.9 2.5-1.9 1.6 0 2.7.8 2.7 2.7v4.4zm-3.2-1c.9 0 2-.6 2-2.2v-.2H38c-1.2 0-1.9.4-1.9 1.2 0 .8.4 1.2 1.1 1.2zm9.4-5.1l-.8.7c-.5-.5-.8-.7-1.3-.7s-.9.3-.9.9c0 1.3 3.3 1 3.3 3.1 0 1.4-.9 2.2-2.3 2.2s-2.3-1-2.6-1.9l1-.5c.3.8.9 1.4 1.6 1.4.7 0 1.1-.4 1.1-1.1 0-1.3-3.2-.9-3.2-3.2 0-1.1.8-1.9 2.1-1.9.8-.1 1.5.3 2 1zm8.2 2.8h-5.2c.1 1.3.7 2.3 2 2.3 1 0 1.6-.5 2-1.3l1 .4c-.7 1.4-1.5 2-3 2-2.1 0-3.2-1.8-3.2-3.6 0-1.9 1.1-3.6 3.2-3.6s3.2 1.6 3.2 3.3v.5zm-5.1-1.1h3.9c-.2-1-.8-1.8-2-1.8-1.1.1-1.7.8-1.9 1.8zm9.9-2.7h1.2v-2.1l1.2-.7V59h1.8v1.1H62V64c0 .8.3 1.2.9 1.2.3 0 .5-.1.8-.2l.3 1c-.3.2-.7.3-1.1.3-1.2 0-2-.7-2-2.3v-3.8h-1.2V59zm5.9 0h1.2v4.7c0 1 .4 1.4 1.2 1.4 1.1 0 2-1.2 2-3.2v-3h1.2V66h-1.2v-1.3c-.5.9-1.4 1.4-2.3 1.4-1.3 0-2.1-.8-2.1-2.2V59zm11.8 1.2c-.2-.2-.5-.2-.8-.2-1 0-2 1.1-2 3.4v2.7h-1.2V59h1.2v1.2c.4-.8 1.3-1.3 2.1-1.3.4 0 .8.1 1 .2l-.3 1.1zm7.5 5.9h-1.2v-4.7c0-1-.4-1.4-1.2-1.4-1.1 0-2 1.2-2 3.2v3h-1.2V59h1.2v1.3c.5-.9 1.4-1.4 2.3-1.4 1.3 0 2.1.8 2.1 2.2v5zM19.9 74l-3.5 9.9h-1.2l1.1-3.2-2.5-6.7h1.3l1.8 5.1 1.8-5.1h1.2zm4.3-.1c2.1 0 3.4 1.7 3.4 3.6s-1.3 3.6-3.4 3.6-3.4-1.7-3.4-3.6 1.3-3.6 3.4-3.6zm0 6.2c1.4 0 2.2-1.3 2.2-2.6s-.7-2.5-2.2-2.5c-1.4 0-2.2 1.3-2.2 2.6s.8 2.5 2.2 2.5zm5.3-6.1h1.2v4.7c0 1 .4 1.4 1.2 1.4 1.1 0 2-1.2 2-3.2v-3h1.2V81h-1.2v-1.3c-.5.9-1.4 1.4-2.3 1.4-1.3 0-2.1-.8-2.1-2.2V74zm11.8 1.2c-.3-.2-.5-.2-.8-.2-1 0-2 1.1-2 3.4v2.7h-1.2V74h1.2v1.2c.4-.8 1.3-1.3 2.1-1.3.4 0 .8.1 1 .2l-.3 1.1zm8.1-1.3c.9 0 1.8.5 2.1 1v-3.7h1.2v9.9h-1.2v-.9c-.3.5-1.2 1-2.1 1-2.1 0-3.1-1.5-3.1-3.6s1.1-3.7 3.1-3.7zm.2 6.2c1.3 0 2-1.1 2-2.6s-.8-2.6-2-2.6-2 1.1-2 2.6.7 2.6 2 2.6zm11.3-2.3h-5.2c.1 1.3.7 2.3 2 2.3 1 0 1.6-.5 2-1.3l1 .4c-.7 1.4-1.5 2-3 2-2.1 0-3.2-1.8-3.2-3.6 0-1.9 1.1-3.6 3.2-3.6s3.2 1.6 3.2 3.3v.5zm-5.1-1.1h3.9c-.2-1-.8-1.8-2-1.8-1.1.1-1.7.8-1.9 1.8zM67.7 74l-2.3 7.1h-1.2L61.8 74H63l1.7 5.6 1.7-5.6h1.3zm2-2.8c.5 0 .9.4.9.9s-.4.9-.9.9-.9-.4-.9-.9c0-.6.4-.9.9-.9zm.6 2.8v7.1h-1.2V74h1.2zm8 5.2c-.6 1.3-1.5 1.9-3 1.9-2.2 0-3.2-1.8-3.2-3.6 0-1.9 1-3.6 3.2-3.6 1.5 0 2.4.6 3 1.9l-1 .4c-.4-.9-1-1.3-1.9-1.3-1.4 0-2 1.2-2 2.6 0 1.4.6 2.6 2 2.6 1 0 1.6-.4 1.9-1.3l1 .4zm7.9-1.4H81c.1 1.3.7 2.3 2 2.3 1 0 1.6-.5 2-1.3l1 .4c-.7 1.4-1.5 2-3 2-2.1 0-3.2-1.8-3.2-3.6 0-1.9 1-3.6 3.2-3.6 2.1 0 3.2 1.6 3.2 3.3v.5zM81 76.7h3.9c-.2-1-.8-1.8-2-1.8-1 .1-1.6.8-1.9 1.8zM52 16.1c-8.3 0-15 6.7-15 15s6.7 15 15 15 15-6.7 15-15-6.7-15-15-15z"/><path d="M60.7 31.1c0-4.8-3.9-8.7-8.7-8.7-4.8 0-8.7 3.9-8.7 8.7h2a6.7 6.7 0 0 1 13.4 0c0 3-1.9 5.5-4.6 6.3l1.2-1.8-1.7-1.1-3 4.5 4.6 3.1 1.1-1.7-1.7-1.1c3.5-1.1 6.1-4.4 6.1-8.2z" fill="#fff"/></svg>