<svg xmlns="http://www.w3.org/2000/svg" width="50" height="50"><path d="M25.005 44.5c-11.54-4.952-17.109-8.821-17.109-18.674V11.953c6.502 0 12.314-2.914 17.109-6.453h-.01c4.794 3.539 10.607 6.453 17.109 6.453v13.873c0 9.853-5.57 13.722-17.109 18.674h.01zm3.48-25.497h-5.153c-1.707 0-3.092 1.344-3.092 2.997 0 1.656 1.385 3 3.092 3h1.87m-3.796 5.997h5.153c1.707 0 3.091-1.344 3.091-2.997 0-1.656-1.384-3-3.091-3h-1.871m.307-5.997v-3.029m0 18.052v-3.029" fill="none" stroke="#faf4ef" stroke-miterlimit="10"/></svg>