<svg xmlns="http://www.w3.org/2000/svg" width="35" height="35"><g fill="#1d1952"><path d="M17.25 2.375c-8.284 0-15 6.715-15 15 0 8.283 6.716 15 15 15s15-6.717 15-15c0-8.285-6.716-15-15-15zm0 29c-7.731 0-14-6.27-14-14 0-7.732 6.269-14 14-14s14 6.268 14 14c0 7.73-6.269 14-14 14z"/><path d="M17.904 11.589V7.314c5 .496 8.975 4.472 9.471 9.471h-4.274a6.345 6.345 0 0 0-5.197-5.196zm-1.058 0V7.314a10.584 10.584 0 0 0-9.471 9.471h4.274a6.345 6.345 0 0 1 5.197-5.196zm-5.197 6.255H7.375a10.585 10.585 0 0 0 9.471 9.471V23.04a6.347 6.347 0 0 1-5.197-5.196zm6.255 5.196v4.274c5-.496 8.975-4.472 9.471-9.471h-4.274a6.347 6.347 0 0 1-5.197 5.197z"/></g></svg>