<svg xmlns="http://www.w3.org/2000/svg" width="35" height="35"><path d="M17.5 2.5c-8.284 0-15 6.715-15 15 0 8.283 6.716 15 15 15s15-6.717 15-15c0-8.285-6.716-15-15-15z" fill="#1d1952"/><path fill="none" stroke="#fff" stroke-miterlimit="10" d="M19.558 21.462l-2.09 3.899 3.979 2.176"/><path d="M25.731 17.342c0-4.571-3.569-7.735-8.141-7.735-4.475 0-7.973 3.557-8.128 8.557h1c.155-4 3.354-7.557 7.278-7.557 4.021 0 6.99 2.993 6.99 7.013 0 3.896-3.219 6.8-7.219 6.996v1c5.001-.196 8.22-3.826 8.22-8.274z" fill="#fff"/></svg>